<svg xmlns="http://www.w3.org/2000/svg" xml:space="preserve" width="3957px" height="1004px" style="shape-rendering:geometricPrecision; text-rendering:geometricPrecision; image-rendering:optimizeQuality; fill-rule:evenodd; clip-rule:evenodd" viewBox="0 0 3957 1004.01" xmlns:xlink="http://www.w3.org/1999/xlink"><path class="phanterpwa-full_logo-fil0" d="M1524.28 828.847c0,0.385069 -20.8611,25.3331 -62.4651,74.9208 -42.295,50.6012 -66.4823,79.0455 -72.5537,85.3944 -2.06709,2.22183 -3.21167,3.49279 -3.66879,3.74675 -0.916607,0.570517 -3.09827,1.13985 -6.41625,1.64895 -5.6213,0.76187 -21.441,1.1434 -47.6824,1.1434 -24.4153,0 -39.3125,-0.381526 -44.7047,-1.1434 -4.46964,-0.635482 -7.10843,-1.13985 -8.02385,-1.45996 -0.915425,-0.381526 -2.28915,-1.58634 -4.34916,-3.55776 -1.37373,-1.39381 -7.6813,-10.0921 -19.1448,-26.219l-36.5603 -51.7446 -37.3683 52.3151c-3.78336,5.90597 -9.97046,14.4779 -18.7952,25.6484 -2.18048,2.09898 -3.78927,3.36877 -4.69997,3.81171 -0.806756,0.442948 -3.43255,0.828017 -7.68012,1.206 -7.56555,0.76187 -22.2348,1.1434 -44.0125,1.1434 -26.819,0 -42.9813,-0.381526 -48.3675,-1.1434 -3.78336,-0.509095 -6.88046,-2.28443 -9.39758,-5.39569 -87.6812,-99.8074 -131.586,-153.269 -131.586,-160.315 0,-9.96573 0.578785,-24.7602 1.83794,-44.5676 1.25915,-19.811 1.83085,-34.6054 1.83085,-44.57 0,-4.06685 2.29506,-6.09969 6.7647,-6.09969 12.7238,0 31.9761,0.320104 57.8868,0.889439 25.8977,0.635482 45.2704,0.955586 58.2234,0.955586 5.15709,0 7.78879,1.13867 7.78879,3.55303 0,9.90431 -0.915425,24.8866 -2.51712,44.8913 -1.72336,20.0614 -2.52421,34.9822 -2.52421,44.948 0,3.6806 8.13843,15.5563 24.5299,35.4902 14.7838,17.8443 25.4465,29.9693 32.2053,36.2544 3.32506,3.23765 5.61422,4.89014 6.76588,4.89014 1.72336,0 6.30639,-5.96857 13.7526,-17.9057 20.9768,-33.3345 31.747,-53.077 32.2041,-59.1069 0.916607,-11.4316 1.03709,-25.9059 0.344909,-43.5577 -0.681549,-25.3945 -1.03118,-40 -1.03118,-43.6817 0,-2.34821 0.349633,-3.74557 1.03118,-4.18851 0.69218,-0.447673 3.09591,-0.824473 7.3364,-1.20954 11.4635,-0.758327 31.1741,-1.13985 59.1459,-1.13985 42.7533,0 64.0656,1.71391 64.0656,5.01771 0,8.31324 -0.457122,21.2048 -1.6017,38.7254 -1.15166,16.9537 -1.60879,29.8452 -1.37963,38.6676l0 9.46136c0,6.34537 11.5781,26.4729 34.6149,60.5043 7.79588,11.7446 12.4947,17.6506 14.0964,17.6506 1.15048,0 3.32506,-1.58634 6.65012,-4.824 6.30758,-6.0926 16.3926,-18.0947 30.2598,-36.1268 15.476,-19.5535 23.1502,-31.2402 23.1502,-34.9208 0,-10.0933 -0.80085,-25.0756 -2.51712,-45.1405 -1.60288,-19.9964 -2.52421,-34.987 -2.52421,-44.8866 0,-2.22655 2.63879,-3.36522 7.7947,-3.36522 13.1821,0 33.0132,-0.320104 59.6031,-0.955586 26.4776,-0.569336 46.4162,-0.889439 59.5983,-0.889439 4.24049,0 6.30639,2.47933 6.30639,7.43207 0,9.77674 0.687455,24.4436 1.94543,43.9971 1.15166,19.4956 1.83794,34.0928 1.83794,43.8081z"/><path class="phanterpwa-full_logo-fil1" d="M1788.45 826.494c-5.72997,5.45948 -15.5079,17.2702 -29.0574,35.4913 -14.8145,19.3645 -22.223,30.7311 -22.223,34.0963 0,2.22183 8.2471,3.42783 24.5889,3.68178 8.52468,0.253957 22.3612,0.380344 41.78,0.380344 18.0191,0 27.9447,-1.01583 29.896,-2.9837 0.566973,-0.635482 0.846916,-1.45877 0.846916,-2.60335 0,-4.06213 -6.28868,-15.3638 -18.866,-33.8424 -12.2962,-17.8396 -21.2367,-29.2688 -26.9655,-34.2204zm290.2 169.458c0,2.22183 -3.49752,3.74675 -10.1984,4.63619 -8.253,1.01228 -33.6735,1.45877 -76.1539,1.45877 -39.1152,0 -64.1306,-0.446491 -75.307,-1.45877 -9.35506,-0.889439 -15.2291,-3.68533 -17.5998,-8.38293 -9.36569,-17.8396 -16.6288,-27.3624 -21.7978,-28.6333 -4.33616,-0.889439 -40.9402,-1.33239 -109.682,-1.33239 -46.389,0 -71.1173,0.569336 -74.0538,1.71391 -4.61138,1.96787 -9.78029,8.63217 -15.5079,19.8724 -5.31065,10.2847 -11.4588,15.8729 -18.8601,16.7623 -9.36569,1.01228 -40.3874,1.45877 -93.3344,1.45877 -41.78,0 -62.5974,-1.77888 -62.5974,-5.39806 0,-3.17269 30.7358,-42.7923 92.4946,-118.853 66.7883,-82.2217 103.114,-127.367 108.849,-135.553 3.21049,-4.76376 7.12024,-7.11197 11.4505,-7.11197 7.40136,0 18.7255,0.315379 34.2334,0.950861 15.3685,0.635482 26.9655,0.954405 34.5133,0.954405 7.40136,0 18.2991,-0.253957 32.549,-0.700448 14.394,-0.376801 25.013,-0.635482 32.1415,-0.635482 5.16891,0 9.91849,2.03283 14.3893,6.16111 13.2684,13.0156 52.3919,57.647 117.088,133.901 64.8298,76.7611 97.3835,116.822 97.3835,120.189z"/><path class="phanterpwa-full_logo-fil2" d="M503.977 868.063l-250.025 0 77.3576 133.984 95.3141 0 77.3529 -133.984zm375.027 -216.523l-125.016 216.523 -250.01 0 125.002 -216.523 62.5088 -108.262 62.5041 -108.261 -3.66406 -6.34537 128.676 222.869zm-875.071 -216.523l125.008 -216.523 125.012 216.523 62.5041 108.261 62.5041 108.262 -250.02 0 -125.008 -216.523zm500.04 -433.047l250.015 0 125.016 216.523 -250.025 0 -125.007 0 -125.012 0 125.012 -216.523z"/><path class="phanterpwa-full_logo-fil3" d="M128.94 651.54l500.038 0 -125.002 216.523 -250.025 0 -125.012 -216.523zm250.02 -433.047l-125.008 216.523 -125.012 -216.523 125.008 -216.523 250.023 0 -125.012 216.523zm250.019 0l250.025 433.047 125.007 -216.523 -125.007 -216.523 -250.025 0z"/><rect class="phanterpwa-full_logo-fil2" x="1107.73" y="4.16706" width="126.667" height="574.884"/><rect class="phanterpwa-full_logo-fil2" x="1413.91" y="4.16706" width="126.667" height="574.884"/><polygon class="phanterpwa-full_logo-fil4" points="1234.39,206.505 1413.91,206.505 1540.58,272.405 1413.91,351.279 1234.39,351.279 1107.73,272.405 "/><polygon class="phanterpwa-full_logo-fil2" points="2018.97,639.36 1895.19,640.537 1735.24,245.705 1802.56,65.7145 "/><polygon class="phanterpwa-full_logo-fil5" points="1713.59,640.771 1586.92,640.771 1735.24,245.705 1803.35,413.834 "/><rect class="phanterpwa-full_logo-fil2" transform="matrix(2.52296E-014 -1.26718 0.952616 3.35607E-014 2516.62 403.855)" width="99.9597" height="453.672"/><polygon class="phanterpwa-full_logo-fil5" points="2669.38,403.855 2731.75,277.151 2796.04,403.855 2796.04,852.034 2669.38,852.034 "/><rect class="phanterpwa-full_logo-fil2" transform="matrix(2.52296E-014 -1.26718 0.952616 3.35607E-014 3018.85 313.812)" width="99.9597" height="453.672"/><rect class="phanterpwa-full_logo-fil2" transform="matrix(2.52296E-014 -1.26718 0.952616 3.35607E-014 3018.85 762.029)" width="99.9597" height="453.672"/><polygon class="phanterpwa-full_logo-fil5" points="3018.85,187.145 3145.52,313.813 3145.52,635.362 3018.85,762.03 "/><polygon class="phanterpwa-full_logo-fil2" points="3145.52,537.919 3018.85,474.586 3145.52,411.253 3311.8,411.253 3311.8,537.919 "/><rect class="phanterpwa-full_logo-fil2" x="2047.28" y="157.141" width="126.667" height="574.884"/><rect class="phanterpwa-full_logo-fil2" x="2353.46" y="157.141" width="126.667" height="574.884"/><rect class="phanterpwa-full_logo-fil5" transform="matrix(1.26718 0 0.673035 1.26718 2048.12 157.141)" width="99.9597" height="453.672"/><path class="phanterpwa-full_logo-fil5" d="M3523.41 97.1367l126.661 0 0 0.0377982 -126.661 -0.0377982zm126.661 128.043l0 446.842 -126.661 0 0 -574.885 126.661 128.043z"/><polygon class="phanterpwa-full_logo-fil2" points="3864.26,374.483 3760.65,478.773 3672.33,390.454 3774.83,287.963 "/><polygon class="phanterpwa-full_logo-fil5" points="3673.18,569.383 3672.33,390.454 3953.07,671.19 3775,671.19 "/><polygon class="phanterpwa-full_logo-fil5" points="3711.16,223.841 3863.03,375.714 3953.07,285.84 3891.07,223.841 "/><polygon class="phanterpwa-full_logo-fil2" points="3523.41,97.1367 3764.44,97.2087 3891.07,223.841 3650.08,225.177 "/></svg>